<?xml version="1.0" encoding="UTF-8" standalone="no"?>
<!-- Created with Inkscape (http://www.inkscape.org/) -->

<svg
   width="1460.8359"
   height="521.90222"
   id="svg2"
   version="1.1"
   inkscape:version="1.4.2 (ebf0e940d0, 2025-05-08)"
   sodipodi:docname="nnev_icon.svg"
   xmlns:inkscape="http://www.inkscape.org/namespaces/inkscape"
   xmlns:sodipodi="http://sodipodi.sourceforge.net/DTD/sodipodi-0.dtd"
   xmlns="http://www.w3.org/2000/svg"
   xmlns:svg="http://www.w3.org/2000/svg"
   xmlns:rdf="http://www.w3.org/1999/02/22-rdf-syntax-ns#"
   xmlns:cc="http://creativecommons.org/ns#"
   xmlns:dc="http://purl.org/dc/elements/1.1/">
  <defs
     id="defs4" />
  <sodipodi:namedview
     id="base"
     pagecolor="#ffffff"
     bordercolor="#666666"
     borderopacity="1.0"
     inkscape:pageopacity="0.0"
     inkscape:pageshadow="2"
     inkscape:zoom="0.35"
     inkscape:cx="637.14286"
     inkscape:cy="474.28571"
     inkscape:document-units="px"
     inkscape:current-layer="layer1"
     showgrid="false"
     inkscape:window-width="1920"
     inkscape:window-height="1011"
     inkscape:window-x="0"
     inkscape:window-y="0"
     inkscape:window-maximized="1"
     inkscape:showpageshadow="2"
     inkscape:pagecheckerboard="0"
     inkscape:deskcolor="#d1d1d1" />
  <metadata
     id="metadata7">
    <rdf:RDF>
      <cc:Work
         rdf:about="">
        <dc:format>image/svg+xml</dc:format>
        <dc:type
           rdf:resource="http://purl.org/dc/dcmitype/StillImage" />
      </cc:Work>
    </rdf:RDF>
  </metadata>
  <g
     inkscape:groupmode="layer"
     id="layer2"
     inkscape:label="Hintergrund"
     transform="translate(-229.58204,-219.04892)" />
  <g
     inkscape:label="Ebene 1"
     inkscape:groupmode="layer"
     id="layer1"
     transform="translate(-229.58204,-191.41108)">
    <g
       id="g4485"
       transform="matrix(1.0623322,0,0,1.0623322,-59.838933,-91.936664)">
      <g
         style="font-size:13.3839px;fill:#e12617;fill-opacity:1"
         id="text16"
         transform="matrix(0.68507919,0,0,0.86051604,271.70555,211.90693)">
        <path
           style="font-variant:normal;font-weight:normal;font-size:311.61px;font-family:'Arial Black';-inkscape-font-specification:ArialBlack;writing-mode:lr-tb;fill:#e12617;fill-opacity:1;fill-rule:nonzero;stroke:none"
           id="path3030"
           d="m 92.907814,120.26419 h 64.360916 l 83.98871,123.39646 V 120.26419 h 64.96953 V 343.32117 H 241.25744 L 157.72519,220.83763 V 343.32117 H 92.907814 V 120.26419"
           inkscape:connector-curvature="0" />
      </g>
      <g
         style="font-size:13.7729px;fill:#e12617;fill-opacity:1"
         id="text20"
         transform="matrix(0.70499296,0,0,0.83620923,271.70555,211.90693)">
        <path
           style="font-variant:normal;font-weight:normal;font-size:212.67px;font-family:'Arial Black';-inkscape-font-specification:ArialBlack;writing-mode:lr-tb;fill:#e12617;fill-opacity:1;fill-rule:nonzero;stroke:none"
           id="path3061"
           d="M 404.43276,366.56551 H 364.9725 v -3.94603 c -4e-5,-6.71511 0.76147,-12.14954 2.28454,-16.30331 1.52298,-4.22287 3.7729,-8.06505 6.74978,-11.52655 3.046,-3.46135 9.83039,-9.55345 20.35319,-18.27633 5.60743,-4.56899 8.41118,-8.75731 8.41126,-12.56498 -8e-5,-3.80746 -1.14235,-6.74967 -3.42681,-8.82664 -2.21539,-2.14596 -5.60758,-3.219 -10.17659,-3.21913 -4.91529,1.3e-4 -8.99977,1.627 -12.25345,4.88062 -3.18457,3.25385 -5.2268,8.93058 -6.12673,17.03021 l -40.291,-4.98445 c 1.38456,-14.81479 6.74977,-26.72208 16.09563,-35.72192 9.41505,-9.06879 23.81457,-13.60325 43.1986,-13.60341 15.09174,1.6e-4 27.27595,3.15005 36.55266,9.4497 12.59948,8.51524 18.89927,19.86871 18.89939,34.06043 -1.2e-4,5.88453 -1.62699,11.56127 -4.88061,17.03022 -3.25385,5.46914 -9.89979,12.14969 -19.93781,20.04166 -6.99218,5.53835 -11.4228,10.00358 -13.29188,13.39572 -1.80003,3.32302 -2.7,7.68442 -2.69991,13.08419 m -40.81022,10.48812 h 42.26402 v 37.27956 h -42.26402 v -37.27956"
           inkscape:connector-curvature="0" />
      </g>
      <g
         style="font-size:14.5454px;fill:#e12617;fill-opacity:1"
         id="text24"
         transform="matrix(0.74453507,0,0,0.79179835,271.70555,211.90693)">
        <path
           style="font-variant:normal;font-weight:normal;font-size:165.345px;font-family:'Arial Black';-inkscape-font-specification:ArialBlack;writing-mode:lr-tb;fill:#e12617;fill-opacity:1;fill-rule:nonzero;stroke:none"
           id="path3033"
           d="m 304.31551,199.0337 c -1e-5,-19.32248 5.38232,-34.36608 16.14699,-45.13083 10.76462,-10.76455 25.7544,-16.14687 44.96936,-16.14699 19.69924,1.2e-4 34.8774,5.30171 45.53451,15.90478 10.65689,10.54946 15.98539,25.35086 15.98552,44.40422 -1.3e-4,13.83264 -2.34144,25.18934 -7.02394,34.07015 -4.62892,8.82704 -11.35683,15.71641 -20.18373,20.66815 -8.7733,4.89792 -19.72633,7.34687 -32.85913,7.34688 -13.34823,-10e-6 -24.40891,-2.12602 -33.18206,-6.37806 -8.7194,-4.25204 -15.79716,-10.97994 -21.23329,-20.18374 -5.43616,-9.20375 -8.15424,-20.72192 -8.15423,-34.55456 m 36.57293,0.16147 c -4e-5,11.94882 2.20671,20.53363 6.62027,25.75445 4.46727,5.22089 10.52239,7.83132 18.16536,7.83129 7.85812,3e-5 13.94015,-2.55658 18.2461,-7.66982 4.30577,-5.11317 6.4587,-14.29004 6.45879,-27.53062 -9e-5,-11.14135 -2.26067,-19.26866 -6.78173,-24.38195 -4.46742,-5.16695 -10.54945,-7.75046 -18.2461,-7.75055 -7.37385,9e-5 -13.29441,2.61052 -17.76169,7.83129 -4.46738,5.22093 -6.70104,13.85957 -6.701,25.91591"
           inkscape:connector-curvature="0" />
      </g>
      <g
         style="font-size:14.7417px;fill:#e12617;fill-opacity:1"
         id="text28"
         transform="matrix(0.75457938,0,0,0.78125864,271.70555,211.90693)">
        <path
           style="font-variant:normal;font-weight:normal;font-size:74.3692px;font-family:'Arial Black';-inkscape-font-specification:ArialBlack;writing-mode:lr-tb;fill:#e12617;fill-opacity:1;fill-rule:nonzero;stroke:none"
           id="path3036"
           d="m 827.68212,404.00584 h 14.30736 l 6.20953,24.29346 7.84363,-24.29346 h 13.3269 l 8.13414,24.29346 6.20953,-24.29346 h 14.19842 l -14.19842,38.5645 h -13.14533 l -7.80732,-23.20406 -7.55312,23.20406 h -13.21796 l -14.30736,-38.5645"
           inkscape:connector-curvature="0" />
        <path
           style="font-variant:normal;font-weight:normal;font-size:74.3692px;font-family:'Arial Black';-inkscape-font-specification:ArialBlack;writing-mode:lr-tb;fill:#e12617;fill-opacity:1;fill-rule:nonzero;stroke:none"
           id="path3038"
           d="m 897.88665,404.00584 h 14.30736 l 6.20953,24.29346 7.84363,-24.29346 h 13.3269 l 8.13413,24.29346 6.20954,-24.29346 h 14.19842 l -14.19842,38.5645 H 940.7724 l -7.80731,-23.20406 -7.55312,23.20406 h -13.21796 l -14.30736,-38.5645"
           inkscape:connector-curvature="0" />
        <path
           style="font-variant:normal;font-weight:normal;font-size:74.3692px;font-family:'Arial Black';-inkscape-font-specification:ArialBlack;writing-mode:lr-tb;fill:#e12617;fill-opacity:1;fill-rule:nonzero;stroke:none"
           id="path3040"
           d="m 968.09118,404.00584 h 14.30735 l 6.20954,24.29346 7.84363,-24.29346 h 13.3269 l 8.1341,24.29346 6.2096,-24.29346 h 14.1984 l -14.1984,38.5645 h -13.1454 l -7.8073,-23.20406 -7.5531,23.20406 h -13.21797 l -14.30735,-38.5645"
           inkscape:connector-curvature="0" />
        <path
           style="font-variant:normal;font-weight:normal;font-size:74.3692px;font-family:'Arial Black';-inkscape-font-specification:ArialBlack;writing-mode:lr-tb;fill:#e12617;fill-opacity:1;fill-rule:nonzero;stroke:none"
           id="path3042"
           d="m 1036.3313,427.7546 h 15.7962 v 14.81574 h -15.7962 V 427.7546"
           inkscape:connector-curvature="0" />
        <path
           style="font-variant:normal;font-weight:normal;font-size:74.3692px;font-family:'Arial Black';-inkscape-font-specification:ArialBlack;writing-mode:lr-tb;fill:#e12617;fill-opacity:1;fill-rule:nonzero;stroke:none"
           id="path3044"
           d="m 1089.8199,427.50041 14.0531,1.59778 c -0.7747,2.92926 -2.0457,5.47118 -3.8129,7.62575 -1.7672,2.13037 -4.0307,3.78866 -6.7905,4.97489 -2.7356,1.18623 -6.2217,1.77934 -10.4582,1.77934 -4.0913,0 -7.5047,-0.37524 -10.2403,-1.12571 -2.7113,-0.77467 -5.0475,-2.00932 -7.0084,-3.70393 -1.9609,-1.71881 -3.4981,-3.72814 -4.6117,-6.02797 -1.1137,-2.29982 -1.6705,-5.35012 -1.6704,-9.1509 -10e-5,-3.97021 0.6778,-7.2747 2.0335,-9.91347 0.9925,-1.93667 2.3482,-3.66759 4.0671,-5.19277 1.7188,-1.54933 3.486,-2.69924 5.3017,-3.44975 2.8808,-1.18619 6.5726,-1.7793 11.0755,-1.77934 6.2942,4e-5 11.0875,1.12574 14.3799,3.37712 3.3166,2.25144 5.6406,5.54383 6.9721,9.87716 l -13.9079,1.85196 c -0.4358,-1.64616 -1.2346,-2.88081 -2.3966,-3.70393 -1.1379,-0.84728 -2.6751,-1.27093 -4.6118,-1.27096 -2.4451,3e-5 -4.4302,0.88365 -5.9553,2.65086 -1.501,1.74305 -2.2515,4.3939 -2.2514,7.95256 -10e-5,3.17136 0.7504,5.58013 2.2514,7.22631 1.5009,1.6462 3.4134,2.4693 5.7374,2.46929 1.9367,10e-6 3.5587,-0.49627 4.866,-1.48884 1.3314,-0.99255 2.324,-2.51769 2.9777,-4.57545"
           inkscape:connector-curvature="0" />
        <path
           style="font-variant:normal;font-weight:normal;font-size:74.3692px;font-family:'Arial Black';-inkscape-font-specification:ArialBlack;writing-mode:lr-tb;fill:#e12617;fill-opacity:1;fill-rule:nonzero;stroke:none"
           id="path3046"
           d="m 1139.4241,427.50041 14.0532,1.59778 c -0.7748,2.92926 -2.0457,5.47118 -3.8129,7.62575 -1.7673,2.13037 -4.0308,3.78866 -6.7906,4.97489 -2.7356,1.18623 -6.2216,1.77934 -10.4581,1.77934 -4.0913,0 -7.5047,-0.37524 -10.2403,-1.12571 -2.7114,-0.77467 -5.0475,-2.00932 -7.0084,-3.70393 -1.9609,-1.71881 -3.4982,-3.72814 -4.6118,-6.02797 -1.1136,-2.29982 -1.6704,-5.35012 -1.6704,-9.1509 0,-3.97021 0.6778,-7.2747 2.0335,-9.91347 0.9926,-1.93667 2.3483,-3.66759 4.0671,-5.19277 1.7188,-1.54933 3.486,-2.69924 5.3017,-3.44975 2.8808,-1.18619 6.5727,-1.7793 11.0755,-1.77934 6.2942,4e-5 11.0876,1.12574 14.38,3.37712 3.3165,2.25144 5.6406,5.54383 6.9721,9.87716 l -13.9079,1.85196 c -0.4358,-1.64616 -1.2347,-2.88081 -2.3967,-3.70393 -1.1378,-0.84728 -2.6751,-1.27093 -4.6117,-1.27096 -2.4451,3e-5 -4.4303,0.88365 -5.9554,2.65086 -1.5009,1.74305 -2.2514,4.3939 -2.2514,7.95256 0,3.17136 0.7505,5.58013 2.2514,7.22631 1.5009,1.6462 3.4134,2.4693 5.7375,2.46929 1.9367,10e-6 3.5586,-0.49627 4.8659,-1.48884 1.3315,-0.99255 2.324,-2.51769 2.9777,-4.57545"
           inkscape:connector-curvature="0" />
        <path
           style="font-variant:normal;font-weight:normal;font-size:74.3692px;font-family:'Arial Black';-inkscape-font-specification:ArialBlack;writing-mode:lr-tb;fill:#e12617;fill-opacity:1;fill-rule:nonzero;stroke:none"
           id="path3048"
           d="m 1189.0284,427.50041 14.0531,1.59778 c -0.7747,2.92926 -2.0457,5.47118 -3.8129,7.62575 -1.7672,2.13037 -4.0307,3.78866 -6.7905,4.97489 -2.7356,1.18623 -6.2217,1.77934 -10.4582,1.77934 -4.0913,0 -7.5047,-0.37524 -10.2403,-1.12571 -2.7114,-0.77467 -5.0475,-2.00932 -7.0084,-3.70393 -1.9609,-1.71881 -3.4982,-3.72814 -4.6117,-6.02797 -1.1137,-2.29982 -1.6705,-5.35012 -1.6705,-9.1509 0,-3.97021 0.6779,-7.2747 2.0336,-9.91347 0.9925,-1.93667 2.3482,-3.66759 4.067,-5.19277 1.7189,-1.54933 3.4861,-2.69924 5.3018,-3.44975 2.8808,-1.18619 6.5726,-1.7793 11.0754,-1.77934 6.2943,4e-5 11.0876,1.12574 14.38,3.37712 3.3166,2.25144 5.6406,5.54383 6.9721,9.87716 l -13.9079,1.85196 c -0.4358,-1.64616 -1.2346,-2.88081 -2.3966,-3.70393 -1.1379,-0.84728 -2.6751,-1.27093 -4.6118,-1.27096 -2.4451,3e-5 -4.4302,0.88365 -5.9553,2.65086 -1.501,1.74305 -2.2515,4.3939 -2.2515,7.95256 0,3.17136 0.7505,5.58013 2.2515,7.22631 1.5009,1.6462 3.4134,2.4693 5.7374,2.46929 1.9367,10e-6 3.5587,-0.49627 4.866,-1.48884 1.3314,-0.99255 2.324,-2.51769 2.9777,-4.57545"
           inkscape:connector-curvature="0" />
        <path
           style="font-variant:normal;font-weight:normal;font-size:74.3692px;font-family:'Arial Black';-inkscape-font-specification:ArialBlack;writing-mode:lr-tb;fill:#e12617;fill-opacity:1;fill-rule:nonzero;stroke:none"
           id="path3050"
           d="m 1208.5965,389.33536 h 14.7794 v 19.60906 c 2.0093,-2.08191 4.0066,-3.57074 5.9917,-4.4665 1.9851,-0.89569 4.3333,-1.34355 7.0447,-1.34359 4.0187,4e-5 7.1779,1.22258 9.4778,3.66762 2.3239,2.44512 3.486,6.19747 3.486,11.25706 v 24.51133 h -14.852 V 421.3635 c -1e-4,-2.42085 -0.4479,-4.12756 -1.3436,-5.12014 -0.8958,-1.01674 -2.1546,-1.52513 -3.7766,-1.52515 -1.7915,2e-5 -3.244,0.67787 -4.3576,2.03353 -1.1136,1.35571 -1.6704,3.78869 -1.6704,7.29893 v 18.51967 h -14.7794 v -53.23498"
           inkscape:connector-curvature="0" />
        <path
           style="font-variant:normal;font-weight:normal;font-size:74.3692px;font-family:'Arial Black';-inkscape-font-specification:ArialBlack;writing-mode:lr-tb;fill:#e12617;fill-opacity:1;fill-rule:nonzero;stroke:none"
           id="path3052"
           d="m 1298.7989,389.33536 v 53.23498 h -13.8353 v -5.70115 c -1.9367,2.42087 -3.7039,4.05496 -5.3017,4.90227 -2.1304,1.1136 -4.5028,1.6704 -7.1173,1.6704 -5.2534,0 -9.272,-1.99722 -12.056,-5.99166 -2.7598,-3.99443 -4.1397,-8.84828 -4.1397,-14.56155 0,-6.39108 1.5252,-11.28123 4.5755,-14.67049 3.0745,-3.38918 6.9721,-5.08379 11.6928,-5.08383 2.2998,4e-5 4.3817,0.38738 6.2458,1.16202 1.8883,0.77472 3.5587,1.93673 5.0112,3.48606 v -18.44705 h 14.9247 m -14.8157,33.84379 c -10e-5,-3.02606 -0.6416,-5.27747 -1.9246,-6.75423 -1.2831,-1.50091 -2.9051,-2.25138 -4.866,-2.25141 -1.7188,3e-5 -3.1592,0.71418 -4.3212,2.14247 -1.1621,1.42834 -1.7431,3.825 -1.7431,7.18999 0,3.14715 0.5931,5.45908 1.7794,6.9358 1.2104,1.45254 2.6992,2.1788 4.4665,2.17879 1.8882,10e-6 3.4618,-0.73836 4.7207,-2.2151 1.2588,-1.47672 1.8882,-3.88549 1.8883,-7.22631"
           inkscape:connector-curvature="0" />
        <path
           style="font-variant:normal;font-weight:normal;font-size:74.3692px;font-family:'Arial Black';-inkscape-font-specification:ArialBlack;writing-mode:lr-tb;fill:#e12617;fill-opacity:1;fill-rule:nonzero;stroke:none"
           id="path3054"
           d="m 1307.8414,427.7546 h 15.7962 v 14.81574 h -15.7962 V 427.7546"
           inkscape:connector-curvature="0" />
        <path
           style="font-variant:normal;font-weight:normal;font-size:74.3692px;font-family:'Arial Black';-inkscape-font-specification:ArialBlack;writing-mode:lr-tb;fill:#e12617;fill-opacity:1;fill-rule:nonzero;stroke:none"
           id="path3056"
           d="m 1373.1681,389.33536 v 53.23498 h -13.8353 v -5.70115 c -1.9368,2.42087 -3.704,4.05496 -5.3017,4.90227 -2.1304,1.1136 -4.5029,1.6704 -7.1174,1.6704 -5.2533,0 -9.272,-1.99722 -12.056,-5.99166 -2.7597,-3.99443 -4.1396,-8.84828 -4.1396,-14.56155 0,-6.39108 1.5251,-11.28123 4.5754,-14.67049 3.0745,-3.38918 6.9721,-5.08379 11.6928,-5.08383 2.2998,4e-5 4.3818,0.38738 6.2459,1.16202 1.8882,0.77472 3.5586,1.93673 5.0112,3.48606 v -18.44705 h 14.9247 m -14.8158,33.84379 c 0,-3.02606 -0.6415,-5.27747 -1.9246,-6.75423 -1.2831,-1.50091 -2.905,-2.25138 -4.8659,-2.25141 -1.7189,3e-5 -3.1593,0.71418 -4.3213,2.14247 -1.162,1.42834 -1.743,3.825 -1.743,7.18999 0,3.14715 0.5931,5.45908 1.7793,6.9358 1.2104,1.45254 2.6993,2.1788 4.4665,2.17879 1.8883,10e-6 3.4619,-0.73836 4.7207,-2.2151 1.2589,-1.47672 1.8883,-3.88549 1.8883,-7.22631"
           inkscape:connector-curvature="0" />
        <path
           style="font-variant:normal;font-weight:normal;font-size:74.3692px;font-family:'Arial Black';-inkscape-font-specification:ArialBlack;writing-mode:lr-tb;fill:#e12617;fill-opacity:1;fill-rule:nonzero;stroke:none"
           id="path3058"
           d="m 1424.9874,426.95572 h -29.6315 c 0.2663,2.37246 0.9078,4.1397 1.9246,5.30171 1.4283,1.67041 3.2924,2.50561 5.5922,2.5056 1.4525,10e-6 2.8324,-0.36312 4.1397,-1.08939 0.7989,-0.45996 1.6583,-1.27095 2.5783,-2.43298 l 14.5615,1.34358 c -2.2272,3.87341 -4.9144,6.65741 -8.0615,8.35201 -3.1472,1.67041 -7.6621,2.50561 -13.5448,2.50561 -5.108,0 -9.1267,-0.71416 -12.0559,-2.14248 -2.9293,-1.45252 -5.3623,-3.74024 -7.299,-6.86317 -1.9125,-3.14712 -2.8687,-6.83895 -2.8687,-11.07549 0,-6.02795 1.9246,-10.906 5.7738,-14.63417 3.8734,-3.72811 9.2114,-5.59218 16.0141,-5.59222 5.5195,4e-5 9.8771,0.83524 13.0727,2.5056 3.1955,1.67044 5.6285,4.09131 7.2989,7.26262 1.6704,3.17137 2.5056,7.29895 2.5056,12.38276 v 1.67041 m -15.0336,-7.08106 c -0.2906,-2.8566 -1.0652,-4.90224 -2.3241,-6.13691 -1.2346,-1.23461 -2.8687,-1.85193 -4.9022,-1.85197 -2.3483,4e-5 -4.2245,0.93207 -5.6285,2.79611 -0.8958,1.16205 -1.4647,2.89297 -1.7068,5.19277 h 14.5616"
           inkscape:connector-curvature="0" />
      </g>
      <path
         style="fill:#e12617;fill-opacity:1;fill-rule:evenodd;stroke:none"
         id="path32"
         d="m 610.94784,315.39239 h 48.78237 l 63.61441,107.21699 V 315.39239 h 49.21522 V 509.20414 H 723.34462 L 660.04501,402.7991 v 106.40504 h -49.09717 z m 297.92777,161.81835 h -59.48363 l -8.18286,31.9934 h -53.346 l 63.49636,-193.81175 h 56.92588 l 63.53571,193.81175 h -54.64455 z m -10.9364,-41.92109 -18.68737,-69.67333 -18.56836,69.67333 z m 90.01148,-119.89726 h 68.68861 l 26.5161,117.91153 26.398,-117.91153 h 68.4526 v 193.81175 h -42.6458 V 361.41931 l -33.0855,147.78483 h -38.5927 l -32.9676,-147.78483 v 147.78483 h -42.76371 z m 223.25891,0 h 139.8928 v 41.37883 h -87.568 v 30.82058 h 0.3263 v 39.52938 h -0.3263 v 38.17614 h 90.1305 v 43.90682 H 1211.2096 V 315.39239"
         inkscape:connector-curvature="0" />
      <path
         style="fill:#e12617;fill-opacity:1;fill-rule:evenodd;stroke:none"
         id="path34"
         d="m 272.43924,266.72327 h 7.5e-4 v -9.2e-4 H 1403.7641 v 9.2e-4 h 0.4702 v 90.17464 h -30.6161 V 297.3375 H 303.0539 v 229.95704 h 214.06552 v 30.61423 H 272.43999 v -0.23322 h -7.5e-4 z M 1373.6182,527.29454 h -18.2257 v 30.61423 h 48.3716 v -0.4674 h 0.4702 v -97.52443 h -30.6161 z m -483.51922,0 H 569.10449 v 30.61423 h 320.99449 v -30.61423"
         inkscape:connector-curvature="0" />
      <path
         style="fill:#e12617;fill-opacity:1;fill-rule:evenodd;stroke:none"
         id="path36"
         d="m 1509.3658,671.56302 c -0.4511,2.80018 -0.6334,5.60035 -1.0845,8.40015 -10.2982,1.44529 -21.4025,1.5356 -31.9694,0.27103 1.5356,-2.8901 4.1557,-5.7806 5.6817,-8.67118 9.2136,1.35498 17.3428,1.35498 27.3722,0 z m 12.1985,5.96141 c 10.2021,-32.06403 22.8517,-100.43882 8.9353,-97.81965 -4.6068,-5.23834 -37.1233,32.60668 -37.6608,67.20005 l -6.2384,-0.5413 c -10.8356,-40.82601 35.1558,-64.77571 39.4939,-98.55617 2.2074,0.5557 6.1328,0.33591 10.3653,-2.05867 13.8205,42.2714 12.736,75.14393 -2.9752,129.60804 -3.2536,39.92279 -0.8158,54.10344 15.9895,68.55493 2.3034,7.09053 2.1211,11.96766 -0.5471,14.09036 -3.1575,-0.81279 -37.7567,-10.0257 -27.3625,-80.47759 z M 1561.9315,524.732 c -3.3495,5.30647 -5.4322,7.20391 -10.0198,10.02558 41.6341,61.60085 31.2496,103.65726 -2.4378,129.21858 -1.8715,3.51136 -1.8715,6.40185 0,8.67109 24.3874,-12.19358 46.6057,-38.74805 36.3075,-95.92251 28.5431,11.10915 42.7186,6.77395 61.7794,3.25165 -1.8044,-3.16143 -2.2171,-7.25478 -5.4227,-9.48429 -47.4214,11.65141 -63.6796,-10.80491 -80.2066,-45.7601 z m -70.3787,6.61366 c -7.5821,-1.03462 -7.4189,6.50233 2.7161,7.40066 27.1898,-1.45403 82.5292,-25.68301 83.153,-68.12237 0.9598,-9.78949 -1.8043,-16.16322 -4.5684,-9.80677 -1.8907,30.57392 -41.3462,66.04355 -81.3007,70.52848 z m 72.231,-86.15903 c -10.7588,41.62165 -64.1883,59.11316 -97.5398,61.11137 -7.1501,-0.0567 -6.7854,3.64899 -1.6123,6.80754 61.7217,4.69031 101.7531,-36.57047 104.9107,-59.17651 0.7774,-5.54066 -0.096,-8.00723 -5.7586,-8.7424 z m -108.1834,42.11016 c 58.6313,0.96744 103.7686,-14.96736 99.824,-53.87194 -2.0923,-5.52147 -2.361,-0.65071 4.0405,-16.49529 1.8716,-7.93429 0.3647,-15.56625 -5.3938,-8.20494 -5.0483,1.1901 -7.6972,21.29982 -14.9337,3.48007 -4.1366,-12.56318 -8.1867,-19.16437 -17.9282,-35.99653 -3.5031,-2.61725 -10.5285,-2.15177 -10.8069,0.46548 11.6898,15.75628 28.879,49.71909 18.6097,56.32508 0,-7.7e-4 1.3916,-0.002 1.382,-0.003 -0.048,0.0326 -0.086,0.0653 -0.1344,0.0969 -0.01,0.005 -0.019,0.0134 -0.028,0.0183 v 7.6e-4 c -1.3436,0.94824 -2.4378,2.72858 -8.8489,2.66428 -7.5341,-22.42657 -12.4096,-46.24478 -35.0598,-69.896 -5.1539,-6.04261 -13.1295,-5.59152 -8.9257,3.01171 17.4387,22.67515 26.3548,37.91604 33.3322,63.00688 0.8638,2.62877 0.6623,4.12407 -0.058,7.20296 -0.1055,-0.41558 -0.4702,0.31384 -2.7928,0.27065 -13.2542,-4.73063 14.4922,0.79563 -52.3258,-76.10273 -6.1712,-5.55601 -13.2542,-2.91765 -10.1638,3.48007 22.0071,29.04695 43.9759,55.33749 44.4654,66.36122 -1.9867,0.89641 -3.8678,-0.0211 -5.8545,-0.73613 -9.5112,-15.40981 -21.8056,-50.22008 -73.4596,-59.3339 -28.5047,-5.04927 -101.5611,-5.32184 -149.5872,-5.11357 l -1.6992,13.23439 c 98.6147,-3.65282 183.0539,-1.94734 191.1158,26.91054 -30.5489,-12.36355 -30.4146,-15.21498 -190.9046,-12.89621 l 0.8062,10.64463 c 150.6141,-0.65552 184.3399,-2.64892 186.5377,18.58659 -15.8551,-8.6589 -86.6274,-8.12816 -185.8275,-8.29035 l -1.2477,11.45658 c 149.2513,-0.40214 182.1997,-4.69224 188.1693,15.53841 -25.2031,-5.91208 -123.05,-3.12783 -187.1999,-3.25164 v 10.48339 c 124.48,-0.22074 174.3776,-2.16904 173.8786,5.25849 l 0.5854,0.0422 c 0.077,2.60573 0.144,5.2105 0.2208,7.81624 60.4645,12.92212 100.9565,-16.26303 105.8128,-22.67323 l 0.8926,-0.15356 c 6.0368,27.40289 -61.4051,41.29821 -89.3627,40.70988 -7.9084,-1.41276 -8.4554,5.54738 2.8697,5.95335"
         inkscape:connector-curvature="0" />
    </g>
  </g>
</svg>
